<svg width="24" height="22" viewBox="0 0 24 22" fill="none" xmlns="http://www.w3.org/2000/svg">
<path fill-rule="evenodd" clip-rule="evenodd" d="M12.0578 0.652588C5.8354 0.652588 0.817322 4.66701 0.817322 9.54057C0.817322 12.704 2.90484 15.4739 6.03612 17.0556L4.97631 21.0139C4.95632 21.0733 4.95325 21.1369 4.96743 21.1979C4.98161 21.2589 5.01248 21.3147 5.05659 21.3591C5.12091 21.4158 5.20367 21.4472 5.28943 21.4474C5.36054 21.4417 5.428 21.4136 5.48213 21.3672L10.0426 18.2921C10.7157 18.385 11.3943 18.4333 12.0739 18.4366C18.2883 18.4366 23.3144 14.4222 23.3144 9.54057C23.3144 4.65898 18.2722 0.652588 12.0578 0.652588ZM4.75099 8.13548H3.52256C3.37031 8.13989 3.21993 8.1009 3.089 8.02306C3.03087 7.98664 2.98089 7.93857 2.94221 7.88193C2.90352 7.82528 2.87696 7.76124 2.86419 7.69385C2.86029 7.65111 2.86029 7.60819 2.86419 7.56545C2.86038 7.4855 2.8759 7.40575 2.90944 7.33307C2.94299 7.26039 2.99356 7.1969 3.05689 7.14793C3.19686 7.04656 3.36581 6.99301 3.53862 6.99533H7.23996C7.39342 6.98994 7.54482 7.03202 7.67352 7.11579C7.73302 7.1506 7.78405 7.19823 7.82293 7.25516C7.8618 7.31208 7.88756 7.37691 7.89833 7.445C7.90225 7.48505 7.90225 7.52541 7.89833 7.56545C7.90211 7.64656 7.88663 7.7274 7.85313 7.80136C7.81964 7.87533 7.76909 7.94025 7.70564 7.99091C7.56907 8.09216 7.40175 8.14325 7.23193 8.13548H6.04365V12.3587C6.04847 12.4487 6.03455 12.5386 6.00276 12.6229C5.97097 12.7072 5.92201 12.7841 5.85898 12.8485C5.79854 12.91 5.72589 12.9583 5.64569 12.9901C5.56549 13.0219 5.47951 13.0365 5.3933 13.0331C5.24251 13.0374 5.09493 12.9892 4.9758 12.8967C4.86239 12.8063 4.78541 12.6779 4.75902 12.5353C4.75109 12.4767 4.75109 12.4173 4.75902 12.3587L4.75099 8.13548ZM8.48572 6.98731C8.37113 7.06196 8.28819 7.17637 8.25288 7.30849L6.55075 11.9251C6.54172 11.9499 6.53079 11.9754 6.51975 12.0011L6.51974 12.0011C6.49148 12.067 6.46243 12.1347 6.46243 12.1982C6.44864 12.2779 6.44864 12.3593 6.46243 12.439C6.45817 12.4844 6.45817 12.5301 6.46243 12.5755C6.48595 12.7086 6.55734 12.8285 6.66315 12.9127C6.77176 12.9942 6.90474 13.0367 7.04051 13.0331C7.16585 13.0489 7.29277 13.0207 7.39965 12.9533C7.50652 12.886 7.58674 12.7837 7.62663 12.6638L7.96384 11.6763H10.0754L10.4127 12.6638C10.4535 12.7814 10.5328 12.8817 10.6377 12.9487C10.7425 13.0157 10.8669 13.0454 10.9907 13.0331C11.0713 13.035 11.1513 13.0204 11.2259 12.99C11.3005 12.9596 11.3681 12.9142 11.4243 12.8565C11.4824 12.804 11.5282 12.7394 11.5587 12.6672C11.5893 12.5951 11.6037 12.5172 11.6009 12.439C11.6037 12.3882 11.6037 12.3373 11.6009 12.2865C11.573 12.1642 11.5382 12.0435 11.4966 11.9251L9.89078 7.38876C9.85239 7.228 9.75495 7.08758 9.6178 6.99535C9.48837 6.92178 9.34104 6.88564 9.19226 6.89097H8.88717C8.74696 6.88472 8.60782 6.91811 8.48572 6.98731ZM8.29302 10.769L9.05577 8.36033L9.81049 10.769H8.29302ZM11.7848 7.56555C11.7767 7.38537 11.8402 7.2093 11.9614 7.0758C12.0231 7.01361 12.0971 6.965 12.1787 6.93319C12.2603 6.90139 12.3477 6.887 12.4352 6.89105C12.5856 6.88929 12.7323 6.93731 12.8527 7.02758C12.9642 7.12176 13.0382 7.25276 13.0614 7.39688C13.0693 7.4528 13.0693 7.50963 13.0614 7.56555V11.7888H15.2694C15.4224 11.7868 15.5728 11.8285 15.7029 11.9091C15.7614 11.9452 15.8116 11.9932 15.8503 12.0499C15.8891 12.1066 15.9154 12.1708 15.9277 12.2383V12.3588C15.9316 12.4388 15.916 12.5184 15.8825 12.5911C15.8489 12.6638 15.7984 12.7273 15.735 12.7763C15.5951 12.8777 15.4261 12.9311 15.2533 12.9288H12.5395C12.3667 12.9399 12.1949 12.895 12.0498 12.8004C11.92 12.7034 11.8335 12.5592 11.8089 12.399C11.803 12.3108 11.803 12.2222 11.8089 12.134L11.7848 7.56555ZM16.2493 7.07584C16.1309 7.21107 16.0678 7.38593 16.0726 7.56559L16.0244 12.3187C16.0165 12.3773 16.0165 12.4368 16.0244 12.4954C16.0508 12.638 16.1278 12.7662 16.2412 12.8566C16.3579 12.948 16.5026 12.9963 16.6507 12.9932C16.7393 12.9969 16.8278 12.9824 16.9107 12.9506C16.9935 12.9189 17.069 12.8704 17.1324 12.8084C17.2508 12.6732 17.3139 12.4983 17.3091 12.3187V10.9779L18.0236 10.2312L19.517 12.6398C19.5789 12.7527 19.667 12.8491 19.774 12.9208C19.8728 12.9728 19.9836 12.9977 20.0951 12.9932C20.263 12.9955 20.4268 12.9418 20.5608 12.8406C20.632 12.78 20.6875 12.7031 20.7224 12.6164C20.7574 12.5297 20.7708 12.4358 20.7615 12.3428V12.3027C20.7172 12.1677 20.6522 12.0403 20.5688 11.9252V11.845L18.963 9.35602L20.2958 7.89471C20.3546 7.82836 20.4058 7.75573 20.4484 7.67801C20.4902 7.6046 20.5123 7.52158 20.5126 7.4371C20.5087 7.41857 20.5087 7.39947 20.5126 7.38094C20.5159 7.36505 20.5159 7.34861 20.5126 7.33272C20.5012 7.26791 20.4768 7.20609 20.4409 7.15091C20.4051 7.09573 20.3584 7.0483 20.3039 7.01154C20.188 6.93235 20.0508 6.89032 19.9104 6.89109C19.8145 6.88921 19.7199 6.91431 19.6375 6.96342C19.55 7.03317 19.4668 7.10817 19.3886 7.18816L17.3572 9.53264V7.56559C17.3612 7.50946 17.3612 7.45305 17.3572 7.39692C17.3313 7.25191 17.2544 7.12097 17.1405 7.02762C17.0091 6.93188 16.8486 6.88437 16.6863 6.89315C16.5239 6.90192 16.3696 6.96649 16.2493 7.07584Z" fill="white"/>
</svg>
