<svg width="25" height="18" viewBox="0 0 25 18" fill="none" xmlns="http://www.w3.org/2000/svg">
<path d="M23.9823 2.79647C23.6991 1.73452 22.8673 0.902662 21.823 0.619476C19.9115 0.106201 12.2832 0.106201 12.2832 0.106201C12.2832 0.106201 4.63717 0.106201 2.74337 0.619476C1.69912 0.902662 0.867261 1.73452 0.584075 2.79647C0.070801 4.70797 0.0708008 8.70798 0.0708008 8.70798C0.0708008 8.70798 0.070801 12.708 0.584075 14.6195C0.867261 15.6814 1.69912 16.5133 2.74337 16.7965C4.65487 17.3097 12.2832 17.3098 12.2832 17.3098C12.2832 17.3098 19.9292 17.3097 21.823 16.7965C22.8673 16.5133 23.6991 15.6814 23.9823 14.6195C24.4956 12.708 24.4956 8.70798 24.4956 8.70798C24.4956 8.70798 24.4956 4.70797 23.9823 2.79647ZM9.78761 12.3363V5.07966L16.177 8.70798L9.78761 12.3363Z" fill="white"/>
</svg>
