<svg xmlns="http://www.w3.org/2000/svg" viewBox="0 0 236.77 203.66"><defs><style>.cls-1,.cls-2{fill:none;stroke:#000;stroke-miterlimit:10;}.cls-1{stroke-width:1.15px;}.cls-2{stroke-width:0.54px;}</style></defs><title>자산 3</title><g id="레이어_2" data-name="레이어 2"><g id="레이어_1-2" data-name="레이어 1"><path d="M28.63,100.08q-13.48,0-21.06-5.39T0,81.26q0-9.54,9.82-9.54.13,13.36,5,20.18t14.8,6.82q8.72,0,14.11-5t5.39-15.13a19.48,19.48,0,0,0-2.25-10,20.73,20.73,0,0,0-7.23-6.88,121.64,121.64,0,0,0-13-6.75q-4.23-2.06-8.66-4.43a42.64,42.64,0,0,1-8.18-5.73,25,25,0,0,1-6-8.11A27,27,0,0,1,1.5,25.09q0-12.27,7.84-18.68T30.27,0A40.75,40.75,0,0,1,44.18,2.18a23.85,23.85,0,0,1,9.34,5.73,11.13,11.13,0,0,1,3.34,7.77,7.31,7.31,0,0,1-3,6.2,12.61,12.61,0,0,1-7.77,2.25q0-11.31-3.68-17T30.13,1.36q-7.9,0-12.61,4.78t-4.7,14q0,6.67,2.45,10.77a20.64,20.64,0,0,0,7.37,7,137.14,137.14,0,0,0,12.54,6.48Q42,47.58,47.79,51a28.6,28.6,0,0,1,9.34,8.66q3.54,5.25,3.55,13.57,0,12.41-8.39,19.63T28.63,100.08Z"/><path d="M91.33,100.08Q81.66,100.08,77,95T72.3,78.76V51.56c0-3.7-.66-6.26-2-7.67s-3.63-2.12-7-2.12h-.33V40.68H82.52V79.3q0,10.33,2.29,14.8t8.26,4.46q7.29,0,10.94-5.71t3.64-16.27v-25q0-5.55-1.9-7.67t-7-2.12h-.32V40.68h19.47V88.22q0,5.55,1.9,7.62c1.27,1.38,3.61,2.06,7,2.06h.33V99H108.41V84.09h-.21a24.87,24.87,0,0,1-2.78,8.76,13.59,13.59,0,0,1-4.35,4.73,14.85,14.85,0,0,1-5,2A25,25,0,0,1,91.33,100.08Z"/><path d="M128.28,98.85V97.76h.87c3.33,0,5.66-.73,7-2.18s2-4.06,2-7.84V51.39q0-5.55-1.85-7.67c-1.23-1.42-3.52-2.12-6.85-2.12h-.55V40.51h19.37V50.74h.22a15.27,15.27,0,0,1,4.19-7.46,13.35,13.35,0,0,1,6-3.15,27.2,27.2,0,0,1,5.93-.71q9.69,0,14.42,5.06t4.74,16.27v27q0,5.67,1.74,7.84t6.42,2.18h.55v1.09H173.45V57.05q0-7.06-2.67-11.54t-9-4.46a11.4,11.4,0,0,0-8.05,2.72,15.09,15.09,0,0,0-4.19,7,31.79,31.79,0,0,0-1.26,9v28q0,5.67,1.85,7.84c1.24,1.45,3.52,2.18,6.86,2.18h.55v1.09Z"/><path d="M95.88,201v-1.29h5q10.59,0,10.59-9.29V118.88q0-8.77-10.59-8.78h-5v-1.29h26.21L155,186.54l28.54-77.73h23.63v1.29H205.5q-10.59,0-10.59,9.3v71q0,9.29,10.59,9.29h1.68V201H172.83v-1.29h.39a9.6,9.6,0,0,0,6.78-2.32q2.52-2.32,2.52-7V115.53L151.14,201H148l-35.25-83.8v73.22q0,9.29,10.59,9.29h2.32V201Z"/><path d="M212,201.08v-.87h1.13c2.57,0,4.4-.52,5.51-1.57s1.66-2.77,1.66-5.16V161.93q0-3.68-1.66-5.24c-1.11-1.05-2.94-1.58-5.51-1.58h-.26v-.87h15.65V193c0,2.57.55,4.4,1.66,5.51s2.94,1.66,5.5,1.66h1.14v.87Z"/><circle class="cls-1" cx="223.37" cy="141.19" r="9.16"/><path d="M2,166.9v-.38h.34a4.35,4.35,0,0,0,2.74-.67,2.71,2.71,0,0,0,.82-2.22V141.06a2.75,2.75,0,0,0-.82-2.25,4.35,4.35,0,0,0-2.74-.68H1.78v-.37H9.9V143H10a7.28,7.28,0,0,1,2.26-4.23,7,7,0,0,1,4.6-1.37q8.63,0,8.63,10.4c0,3.43-.74,6-2.23,7.81a8,8,0,0,1-6.49,2.67,6.77,6.77,0,0,1-4.49-1.39A7.11,7.11,0,0,1,10,152.59H9.94c0,.63,0,1.25,0,1.88v9a3,3,0,0,0,.83,2.37,4.18,4.18,0,0,0,2.73.71h.13v.38Zm14-9.2a4.23,4.23,0,0,0,4-2.29q1.21-2.29,1.21-7.66t-1.21-7.55A4.27,4.27,0,0,0,16,137.94a4.87,4.87,0,0,0-4.58,2.48c-.94,1.65-1.41,4.11-1.41,7.36s.49,5.85,1.48,7.48A5,5,0,0,0,16,157.7Z"/><path d="M40.62,158.26a10.19,10.19,0,0,1-7.38-2.59q-2.69-2.59-2.69-7.89T33.13,140q2.58-2.56,7.62-2.57A10.28,10.28,0,0,1,48.13,140q2.68,2.58,2.68,7.83c0,3.53-.86,6.16-2.6,7.89S43.94,158.26,40.62,158.26Zm.08-.38a4.84,4.84,0,0,0,4.54-2.32q1.36-2.34,1.37-7.78t-1.37-7.71a4.9,4.9,0,0,0-4.58-2.31,4.83,4.83,0,0,0-4.55,2.31q-1.35,2.31-1.35,7.71t1.37,7.78A4.87,4.87,0,0,0,40.7,157.88Z"/><path d="M54.2,157.88v-.37h.56a4.35,4.35,0,0,0,2.74-.68,2.7,2.7,0,0,0,.82-2.21V141.06a2.75,2.75,0,0,0-.82-2.25,4.35,4.35,0,0,0-2.74-.68h-.13v-.37h7.73v3.75h.08a7.79,7.79,0,0,1,.92-1.91A4.6,4.6,0,0,1,65.18,138a7.19,7.19,0,0,1,3.34-.64,6.26,6.26,0,0,1,3.3.73,2.37,2.37,0,0,1,.23,3.93,5,5,0,0,1-3.1.75,4.41,4.41,0,0,0-.91-3.21,2.86,2.86,0,0,0-2-.88,2.62,2.62,0,0,0-2,.76,4.63,4.63,0,0,0-1.09,2,11.86,11.86,0,0,0-.43,2.52c-.06.86-.09,1.66-.09,2.39v8.07a3,3,0,0,0,.82,2.37,4.21,4.21,0,0,0,2.74.71h.56v.37Z"/><path d="M85.15,159.4q-3.3,0-4.79-1.3t-1.5-4.52V139.27h-3.3v-.37a8.83,8.83,0,0,0,4.69-1,5.19,5.19,0,0,0,2.25-3.6h.44v4.62H89v.37H82.94V155q0,3.9,3.43,3.9a9.46,9.46,0,0,0,2.64-.45v.38a8.31,8.31,0,0,1-1.69.41A12.74,12.74,0,0,1,85.15,159.4Z"/><path d="M1.78,203.66v-.38h.57a4.34,4.34,0,0,0,2.73-.67,2.71,2.71,0,0,0,.82-2.22V183.9H2v-.37H5.9v-1.88a6.42,6.42,0,0,1,2-5.12c1.36-1.19,3.42-1.79,6.16-1.79a9.38,9.38,0,0,1,4.17.73,2.18,2.18,0,0,1,1.39,1.9,1.71,1.71,0,0,1-1,1.56,5.37,5.37,0,0,1-2.56.54,6.6,6.6,0,0,0-.63-3.38,2.4,2.4,0,0,0-2.19-1,2.65,2.65,0,0,0-2.56,1.37,11.09,11.09,0,0,0-.74,4.82v2.22H16.1v.37H10v16.3a3,3,0,0,0,.83,2.37,4.2,4.2,0,0,0,2.73.71h1.65v.38Z"/><path d="M29.07,203.66a10.2,10.2,0,0,1-7.37-2.59c-1.8-1.73-2.69-4.36-2.69-7.89s.86-6.11,2.58-7.83,4.26-2.57,7.61-2.57a10.25,10.25,0,0,1,7.38,2.57c1.79,1.72,2.69,4.32,2.69,7.83s-.87,6.16-2.6,7.89S32.4,203.66,29.07,203.66Zm.09-.38A4.82,4.82,0,0,0,33.69,201c.92-1.55,1.37-4.14,1.37-7.77s-.45-6.18-1.37-7.72a4.88,4.88,0,0,0-4.57-2.31,4.85,4.85,0,0,0-4.56,2.31c-.9,1.54-1.34,4.11-1.34,7.72s.45,6.22,1.36,7.77A4.87,4.87,0,0,0,29.16,203.28Z"/><path d="M42.22,203.66v-.38h.56a4.35,4.35,0,0,0,2.74-.67,2.71,2.71,0,0,0,.82-2.22v-22a2.75,2.75,0,0,0-.82-2.25,4.35,4.35,0,0,0-2.74-.68h-.56v-.37h8.2V200.2a3,3,0,0,0,.82,2.37,4.23,4.23,0,0,0,2.74.71h.56v.38Z"/><path d="M56.1,203.66v-.38h.57a4.34,4.34,0,0,0,2.73-.67,2.71,2.71,0,0,0,.83-2.22V186.83a2.75,2.75,0,0,0-.83-2.25,4.33,4.33,0,0,0-2.73-.68h-.13v-.37H64.3V200.2a3,3,0,0,0,.83,2.37,4.2,4.2,0,0,0,2.73.71h.57v.38Z"/><path d="M81.14,203.66a9.34,9.34,0,0,1-5.82-1.73A9.92,9.92,0,0,1,72,197.09a22.58,22.58,0,0,1-1.07-7.29A22.24,22.24,0,0,1,72,182.55a9.72,9.72,0,0,1,3.31-4.77,9.58,9.58,0,0,1,5.86-1.69,9.09,9.09,0,0,1,5.62,1.69,10.21,10.21,0,0,1,3.36,4.79,23.92,23.92,0,0,1,0,14.53,10.34,10.34,0,0,1-3.38,4.83A9,9,0,0,1,81.14,203.66Zm0-.38A4.39,4.39,0,0,0,84.46,202a8.34,8.34,0,0,0,1.78-4.25,58,58,0,0,0,0-15.79,8.15,8.15,0,0,0-1.78-4.2,4.34,4.34,0,0,0-3.28-1.28,4.49,4.49,0,0,0-3.38,1.28A8,8,0,0,0,76,182a56.94,56.94,0,0,0,0,15.79A8.18,8.18,0,0,0,77.8,202,4.45,4.45,0,0,0,81.14,203.28Z"/><circle class="cls-2" cx="61.7" cy="178.11" r="2.44"/></g></g></svg>