<svg width="24" height="24" viewBox="0 0 24 24" fill="none" xmlns="http://www.w3.org/2000/svg">
<path d="M20.5 13.9999C20.2348 13.9999 19.9804 14.1053 19.7929 14.2928C19.6054 14.4803 19.5 14.7347 19.5 14.9999V18.9999C19.5 19.2651 19.3946 19.5195 19.2071 19.707C19.0196 19.8945 18.7652 19.9999 18.5 19.9999H4.5C4.23478 19.9999 3.98043 19.8945 3.79289 19.707C3.60536 19.5195 3.5 19.2651 3.5 18.9999V9.4099L9.38 15.2999C9.9425 15.8617 10.705 16.1773 11.5 16.1773C12.295 16.1773 13.0575 15.8617 13.62 15.2999L15.26 13.6599C15.4483 13.4716 15.5541 13.2162 15.5541 12.9499C15.5541 12.6836 15.4483 12.4282 15.26 12.2399C15.0717 12.0516 14.8163 11.9458 14.55 11.9458C14.2837 11.9458 14.0283 12.0516 13.84 12.2399L12.2 13.8799C12.0131 14.0631 11.7618 14.1658 11.5 14.1658C11.2382 14.1658 10.9869 14.0631 10.8 13.8799L4.91 7.9999H11.5C11.7652 7.9999 12.0196 7.89454 12.2071 7.707C12.3946 7.51947 12.5 7.26511 12.5 6.9999C12.5 6.73468 12.3946 6.48033 12.2071 6.29279C12.0196 6.10525 11.7652 5.9999 11.5 5.9999H4.5C3.70435 5.9999 2.94129 6.31597 2.37868 6.87858C1.81607 7.44119 1.5 8.20425 1.5 8.9999V18.9999C1.5 19.7955 1.81607 20.5586 2.37868 21.1212C2.94129 21.6838 3.70435 21.9999 4.5 21.9999H18.5C19.2956 21.9999 20.0587 21.6838 20.6213 21.1212C21.1839 20.5586 21.5 19.7955 21.5 18.9999V14.9999C21.5 14.7347 21.3946 14.4803 21.2071 14.2928C21.0196 14.1053 20.7652 13.9999 20.5 13.9999ZM22.21 5.2899L19.21 2.2899C19.1149 2.19886 19.0028 2.12749 18.88 2.0799C18.6365 1.97988 18.3635 1.97988 18.12 2.0799C17.9972 2.12749 17.8851 2.19886 17.79 2.2899L14.79 5.2899C14.6017 5.4782 14.4959 5.73359 14.4959 5.9999C14.4959 6.2662 14.6017 6.52159 14.79 6.7099C14.9783 6.8982 15.2337 7.00399 15.5 7.00399C15.7663 7.00399 16.0217 6.8982 16.21 6.7099L17.5 5.4099V10.9999C17.5 11.2651 17.6054 11.5195 17.7929 11.707C17.9804 11.8945 18.2348 11.9999 18.5 11.9999C18.7652 11.9999 19.0196 11.8945 19.2071 11.707C19.3946 11.5195 19.5 11.2651 19.5 10.9999V5.4099L20.79 6.7099C20.883 6.80363 20.9936 6.87802 21.1154 6.92879C21.2373 6.97956 21.368 7.00569 21.5 7.00569C21.632 7.00569 21.7627 6.97956 21.8846 6.92879C22.0064 6.87802 22.117 6.80363 22.21 6.7099C22.3037 6.61693 22.3781 6.50633 22.4289 6.38447C22.4797 6.26261 22.5058 6.13191 22.5058 5.9999C22.5058 5.86788 22.4797 5.73718 22.4289 5.61532C22.3781 5.49346 22.3037 5.38286 22.21 5.2899Z" fill="black"/>
</svg>
